<?xml version="1.0" standalone="no"?>
<!DOCTYPE svg PUBLIC "-//W3C//DTD SVG 20010904//EN"
 "http://www.w3.org/TR/2001/REC-SVG-20010904/DTD/svg10.dtd">
<svg version="1.0" xmlns="http://www.w3.org/2000/svg"
 width="611.000000pt" height="611.000000pt" viewBox="0 0 611.000000 611.000000"
 preserveAspectRatio="xMidYMid meet">
<metadata>
Created by potrace 1.11, written by Peter Selinger 2001-2013
</metadata>
<g transform="translate(0.000000,611.000000) scale(0.100000,-0.100000)"
fill="#000000" stroke="none">
<path d="M500 4609 c-95 -43 -220 -81 -355 -108 l-140 -29 -3 -51 c-2 -28 -1
-51 1 -51 34 0 187 -35 208 -47 57 -34 54 35 57 -1320 l2 -1251 -24 -19 c-13
-11 -74 -35 -135 -53 l-111 -34 0 -53 0 -53 455 0 455 0 0 54 0 54 -65 16
c-93 23 -168 53 -193 76 l-22 21 0 463 0 463 52 69 c70 94 229 252 307 304
130 87 250 116 354 86 68 -20 106 -62 133 -144 16 -52 18 -112 22 -653 l3
-597 -33 -20 c-33 -20 -114 -50 -195 -71 l-43 -12 0 -54 0 -55 455 0 455 0 0
53 0 54 -81 22 c-121 33 -187 65 -194 93 -3 13 -6 325 -8 693 -2 668 -2 670
-24 725 -74 179 -215 272 -413 272 -202 0 -433 -125 -677 -365 l-113 -111 0
796 0 796 -39 31 c-21 17 -40 31 -42 30 -2 0 -24 -9 -49 -20z"/>
<path d="M3544 4226 c-95 -44 -154 -142 -154 -258 0 -128 72 -198 205 -198
111 0 217 83 250 194 38 127 -2 239 -98 275 -51 19 -147 13 -203 -13z"/>
<path d="M3564 3406 c-83 -29 -200 -62 -260 -75 -157 -32 -144 -25 -144 -81 0
-49 0 -49 38 -55 154 -25 186 -40 213 -98 18 -40 19 -75 19 -693 0 -607 -1
-652 -17 -667 -25 -22 -96 -51 -180 -73 l-73 -18 0 -53 0 -53 455 0 455 0 0
53 0 53 -73 17 c-91 22 -170 58 -191 88 -14 21 -16 103 -16 866 l0 843 -37 -1
c-21 -1 -106 -25 -189 -53z"/>
<path d="M5179 3449 c-204 -17 -404 -121 -565 -292 -212 -227 -316 -535 -286
-847 40 -404 268 -702 614 -800 106 -31 280 -37 388 -16 348 70 645 374 752
768 19 72 22 106 22 258 0 157 -3 185 -27 274 -118 442 -461 691 -898 655z
m143 -253 c164 -67 310 -260 380 -501 21 -72 23 -100 23 -285 0 -179 -3 -216
-23 -294 -45 -178 -128 -298 -245 -356 -223 -109 -438 -32 -601 214 -129 195
-173 398 -147 673 31 315 138 489 339 554 85 27 202 25 274 -5z"/>
<path d="M2516 2704 c-65 -20 -146 -101 -169 -168 -34 -100 -15 -230 41 -279
75 -67 230 -58 319 18 113 97 135 293 43 385 -57 57 -139 73 -234 44z"/>
</g>
</svg>
