<?xml version="1.0" encoding="UTF-8" standalone="no"?>
<svg xmlns:rdf="http://www.w3.org/1999/02/22-rdf-syntax-ns#" xmlns="http://www.w3.org/2000/svg" version="1.1" xmlns:cc="http://creativecommons.org/ns#" xmlns:xlink="http://www.w3.org/1999/xlink" enable-background="new" viewBox="0 0 332 140" xmlns:dc="http://purl.org/dc/elements/1.1/">
	<g transform="matrix(1.9 0 0 2.2 -5.71 41)">
		<g fill="#a0a1bd">
			<path d="m52.7 10.6c4.3 0 6.5 2.6 6.5 7.1v1.5h-4.2v-1.8c0-2-0.8-2.8-2.2-2.8s-2.2 0.8-2.2 2.8c0 5.8 8.6 6.9 8.6 14.9 0 4.5-2.3 7.1-6.6 7.1s-6.6-2.6-6.6-7.1v-2.7h4.2v3c0 2 0.9 2.7 2.3 2.7s2.3-0.7 2.3-2.7c0-5.8-8.6-6.9-8.6-14.9 0-4.5 2.2-7.1 6.5-7.1"/>
			<rect height="28.2" width="4.4" y="10.9" x="61.8"/>
			<polygon points="69.4 10.9 73.9 10.9 73.9 35.1 81.2 35.1 81.2 39.1 69.4 39.1"/>
			<polygon points="95.2 39.1 83.2 39.1 83.2 10.9 95.2 10.9 95.2 14.9 87.6 14.9 87.6 22.8 93.7 22.8 93.7 26.8 87.6 26.8 87.6 35.1 95.2 35.1"/>
			<polygon points="97 39.1 102 24.6 97.3 10.9 102 10.9 105 21.3 109 10.9 113 10.9 108 24.6 113 39.1 108 39.1 105 27.9 101 39.1"/>
		</g>
		<g fill="#6e6e7a">
			<polygon points="118 10.9 122 10.9 122 35.1 130 35.1 130 39.1 118 39.1"/>
			<path d="m146 39.1h-4.5l-1-5.1h-5.4l-0.8 5.1h-4.1l4.5-28.2h6.5l4.6 28.2zm-10.1-9h4.3l-2.1-14.2-2.2 14.2z"/>
			<path d="m161 17.4v1c0 2.9-0.9 4.7-2.9 5.7 2.4 0.9 3.3 3.1 3.3 6v2.3c0 4.3-2.3 6.7-6.7 6.7h-7v-28.2h6.7c4.7 0 6.6 2.2 6.6 6.5m-8.8-2.5v7.4h1.7c1.7 0 2.7-0.7 2.7-3v-1.6c0-2-0.7-2.9-2.3-2.9h-2.1zm0 11.5v8.6h2.5c1.5 0 2.3-0.7 2.3-2.8v-2.5c0-2.6-0.8-3.4-2.9-3.4h-1.9z"/>
			<path d="m170 10.6c4.3 0 6.5 2.6 6.5 7.1v1.5h-4.2v-1.8c0-2-0.8-2.8-2.2-2.8s-2.2 0.8-2.2 2.8c0 5.8 8.6 6.9 8.6 14.9 0 4.5-2.2 7.1-6.6 7.1s-6.6-2.6-6.6-7.1v-2.7h4.2v3c0 2 0.9 2.7 2.3 2.7s2.3-0.7 2.3-2.7c0-5.8-8.7-6.9-8.7-14.9 0.1-4.5 2.3-7.1 6.6-7.1"/>
		</g>
		<defs>
			<path id="b" d="m18.8 12.2-6.3 3.6c-1.8 1-3.2 3.5-3.2 5.5v7.3c0 2 1.4 4.5 3.2 5.6l6.3 3.6c1.8 1 4.6 1 6.4 0l6.3-3.6c1.8-1 3.2-3.5 3.2-5.6v-7.3c0-2-1.4-4.5-3.2-5.5l-6.3-3.6c-0.9-0.5-2-0.8-3.2-0.8-1.1 0-2.3 0.3-3.2 0.8"/>
		</defs>
		<clipPath id="a">
			<use xlink:href="#b" height="1" width="1" y="0" x="0" overflow="visible"/>
		</clipPath>
		<g clip-rule="evenodd" fill-rule="evenodd">
			<path d="m53.9 45c-22.2-12.9-36.4-26.1-21-43.3 0 0-13.2 20.1 26.1 36.6 1.3 1.6-3 7.9-5.1 6.7" clip-path="url(#a)" fill="#fdc603"/>
			<path d="m38.3 50.2c-22.9-22.6-22.9-39.2-1.4-51.7 0 0-26.9 13.7 11.7 45.5 3.8 3.1 2.7 6 0.3 7.4-5.8 3.2-8.5 0.8-10.6-1.2" clip-path="url(#a)" fill="#eb661c"/>
			<path d="m20.5 48.2c-12-26.5-0.9-45.5 21.5-51.7 0 0-33.8 11.9-9.2 47.9 3.1 4.5-0.9 6.3-4.3 7.3-4.1 1.3-7.1-1.3-8-3.5" clip-path="url(#a)" fill="#45a2da"/>
			<path d="m5.3 38.5c0.2-26.7 20.9-42.1 42.1-42.8 0 0-36.9 2.6-30.6 40.9 0.5 3.3-0.6 7-5.5 7.1-5.9 0.1-6-5.2-6-5.2" clip-path="url(#a)" fill="#48ab33"/>
		</g>
		<path fill="#767676" d="m22 5.9c1.6 0 3.3 0.4 4.5 1.1l8.8 5.1c2.5 1.4 4.5 4.9 4.5 7.8v10.2c0 2.9-2 6.4-4.5 7.8l-8.8 5.1c-1.2 0.7-2.9 1.1-4.5 1.1s-3.3-0.4-4.5-1.1l-8.8-5.1c-2.5-1.4-4.5-4.9-4.5-7.8v-10.2c0-2.9 2-6.4 4.5-7.8l8.8-5.1c1.3-0.7 2.9-1.1 4.5-1.1m0-1.1v1.1-1.1c-1.9 0-3.7 0.4-5.1 1.2l-8.8 5.1c-2.8 1.6-5.1 5.5-5.1 8.8v10.2c0 3.3 2.2 7.1 5.1 8.8l8.9 5.1c1.4 0.8 3.2 1.2 5.1 1.2s3.7-0.4 5.1-1.2l8.8-5.1c2.8-1.6 5.1-5.5 5.1-8.8v-10.2c0-3.3-2.2-7.1-5.1-8.8l-8.9-5.1c-1.4-0.8-3.2-1.2-5.1-1.2"/>
		<path fill="#fff" d="m22 12.5c1.1 0 2.1 0.2 3 0.7l5.8 3.3c1.6 0.9 3 3.2 3 5.1v6.7c0 1.9-1.3 4.2-3 5.1l-5.8 3.4c-0.8 0.5-1.9 0.7-3 0.7s-2.1-0.2-3-0.7l-5.8-3.3c-1.6-0.9-3-3.2-3-5.1v-6.7c0-1.9 1.3-4.2 3-5.1l5.8-3.3c0.9-0.6 2-0.8 3-0.8m10.5 23.9c2.7-1.5 4.6-4.9 4.6-8v-6.7c0-3.1-1.9-6.5-4.6-8l-5.8-3.3c-1.3-0.7-2.9-1.1-4.6-1.1s-3.3 0.4-4.6 1.1l-5.8 3.3c-2.7 1.5-4.6 4.9-4.6 8v6.7c0 3.1 1.9 6.5 4.6 8l5.8 3.3c1.3 0.7 2.9 1.2 4.6 1.2s3.3-0.4 4.6-1.1"/>
	</g>
	<text style="word-spacing:0px;letter-spacing:0px" xml:space="preserve" font-size="40px" y="41" x="-5" font-family="Open Sans" line-height="125%" fill="#48ab33"><tspan>Brought to you by</tspan></text>
</svg>
