<?xml version="1.0" encoding="UTF-8" standalone="no"?>
<!-- Created with Inkscape (http://www.inkscape.org/) -->

<svg
   xmlns:dc="http://purl.org/dc/elements/1.1/"
   xmlns:cc="http://creativecommons.org/ns#"
   xmlns:rdf="http://www.w3.org/1999/02/22-rdf-syntax-ns#"
   xmlns:svg="http://www.w3.org/2000/svg"
   xmlns="http://www.w3.org/2000/svg"
   xmlns:xlink="http://www.w3.org/1999/xlink"
   xmlns:sodipodi="http://sodipodi.sourceforge.net/DTD/sodipodi-0.dtd"
   xmlns:inkscape="http://www.inkscape.org/namespaces/inkscape"
   width="744.09448819"
   height="1052.3622047"
   id="svg2"
   version="1.1"
   inkscape:version="0.48.2 r9819"
   sodipodi:docname="by-silexlabs.svg">
  <defs
     id="defs4" />
  <sodipodi:namedview
     id="base"
     pagecolor="#ffffff"
     bordercolor="#666666"
     borderopacity="1.0"
     inkscape:pageopacity="0.0"
     inkscape:pageshadow="2"
     inkscape:zoom="2.8"
     inkscape:cx="174.26794"
     inkscape:cy="113.20071"
     inkscape:document-units="px"
     inkscape:current-layer="layer1"
     showgrid="false"
     inkscape:window-width="1440"
     inkscape:window-height="848"
     inkscape:window-x="-8"
     inkscape:window-y="-8"
     inkscape:window-maximized="1" />
  <metadata
     id="metadata7">
    <rdf:RDF>
      <cc:Work
         rdf:about="">
        <dc:format>image/svg+xml</dc:format>
        <dc:type
           rdf:resource="http://purl.org/dc/dcmitype/StillImage" />
        <dc:title></dc:title>
      </cc:Work>
    </rdf:RDF>
  </metadata>
  <g
     inkscape:label="Layer 1"
     inkscape:groupmode="layer"
     id="layer1">
    <g
       id="g2986"
       transform="matrix(1.9033928,0,0,2.2047364,-5.7101783,952.7081)">
	<g
   id="g2988">
		<g
   id="g2990">
			<path
   id="path2992"
   d="m 52.7,10.6 c 4.3,0 6.5,2.6 6.5,7.1 v 1.5 H 55 v -1.8 c 0,-2 -0.8,-2.8 -2.2,-2.8 -1.4,0 -2.2,0.8 -2.2,2.8 0,5.8 8.6,6.9 8.6,14.9 0,4.5 -2.3,7.1 -6.6,7.1 -4.3,0 -6.6,-2.6 -6.6,-7.1 v -2.7 h 4.2 v 3 c 0,2 0.9,2.7 2.3,2.7 1.4,0 2.3,-0.7 2.3,-2.7 0,-5.8 -8.6,-6.9 -8.6,-14.9 0,-4.5 2.2,-7.1 6.5,-7.1"
   inkscape:connector-curvature="0"
   style="fill:#a0a1bd" />

			<rect
   id="rect2994"
   height="28.200001"
   width="4.4000001"
   y="10.9"
   x="61.799999"
   style="fill:#a0a1bd" />

			<polygon
   id="polygon2996"
   points="69.4,10.9 73.9,10.9 73.9,35.1 81.2,35.1 81.2,39.1 69.4,39.1 "
   style="fill:#a0a1bd" />

			<polygon
   id="polygon2998"
   points="95.2,39.1 83.2,39.1 83.2,10.9 95.2,10.9 95.2,14.9 87.6,14.9 87.6,22.8 93.7,22.8 93.7,26.8 87.6,26.8 87.6,35.1 95.2,35.1 "
   style="fill:#a0a1bd" />

			<polygon
   id="polygon3000"
   points="97,39.1 101.9,24.6 97.3,10.9 101.9,10.9 105.2,21.3 108.6,10.9 112.8,10.9 108.1,24.6 113.1,39.1 108.4,39.1 104.8,27.9 101.1,39.1 "
   style="fill:#a0a1bd" />

			<polygon
   id="polygon3002"
   points="118,10.9 122.4,10.9 122.4,35.1 129.7,35.1 129.7,39.1 118,39.1 "
   style="fill:#6e6e7a" />

			<path
   id="path3004"
   d="m 146,39.1 h -4.5 L 140.7,34 h -5.4 l -0.8,5.1 h -4.1 l 4.5,-28.2 h 6.5 l 4.6,28.2 z m -10.1,-9 h 4.3 l -2.1,-14.2 -2.2,14.2 z"
   inkscape:connector-curvature="0"
   style="fill:#6e6e7a" />

			<path
   id="path3006"
   d="m 161.3,17.4 v 1 c 0,2.9 -0.9,4.7 -2.9,5.7 2.4,0.9 3.3,3.1 3.3,6 v 2.3 c 0,4.3 -2.3,6.7 -6.7,6.7 h -7 V 10.9 h 6.7 c 4.7,0 6.6,2.2 6.6,6.5 m -8.8,-2.5 v 7.4 h 1.7 c 1.7,0 2.7,-0.7 2.7,-3 v -1.6 c 0,-2 -0.7,-2.9 -2.3,-2.9 h -2.1 z m 0,11.5 V 35 h 2.5 c 1.5,0 2.3,-0.7 2.3,-2.8 v -2.5 c 0,-2.6 -0.8,-3.4 -2.9,-3.4 h -1.9 z"
   inkscape:connector-curvature="0"
   style="fill:#6e6e7a" />

			<path
   id="path3008"
   d="m 170.4,10.6 c 4.3,0 6.5,2.6 6.5,7.1 v 1.5 h -4.2 v -1.8 c 0,-2 -0.8,-2.8 -2.2,-2.8 -1.4,0 -2.2,0.8 -2.2,2.8 0,5.8 8.6,6.9 8.6,14.9 0,4.5 -2.2,7.1 -6.6,7.1 -4.4,0 -6.6,-2.6 -6.6,-7.1 v -2.7 h 4.2 v 3 c 0,2 0.9,2.7 2.3,2.7 1.4,0 2.3,-0.7 2.3,-2.7 0,-5.8 -8.7,-6.9 -8.7,-14.9 0.1,-4.5 2.3,-7.1 6.6,-7.1"
   inkscape:connector-curvature="0"
   style="fill:#6e6e7a" />

		</g>

		<g
   id="g3010">
			<defs
   id="defs3012">
				<path
   d="m 18.8,12.2 -6.3,3.6 c -1.8,1 -3.2,3.5 -3.2,5.5 v 7.3 c 0,2 1.4,4.5 3.2,5.6 l 6.3,3.6 c 1.8,1 4.6,1 6.4,0 l 6.3,-3.6 c 1.8,-1 3.2,-3.5 3.2,-5.6 l 0,-7.3 c 0,-2 -1.4,-4.5 -3.2,-5.5 l -6.3,-3.6 c -0.9,-0.5 -2,-0.8 -3.2,-0.8 -1.1,0 -2.3,0.3 -3.2,0.8"
   id="SVGID_1_"
   inkscape:connector-curvature="0" />

			</defs>

			<clipPath
   id="SVGID_2_">
				<use
   id="use3016"
   overflow="visible"
   xlink:href="#SVGID_1_"
   style="overflow:visible"
   x="0"
   y="0"
   width="1"
   height="1" />

			</clipPath>

			<path
   id="path3018"
   d="M 53.9,45 C 31.7,32.1 17.5,18.9 32.9,1.7 c 0,0 -13.2,20.1 26.1,36.6 1.3,1.6 -3,7.9 -5.1,6.7"
   clip-rule="evenodd"
   clip-path="url(#SVGID_2_)"
   inkscape:connector-curvature="0"
   style="fill:#fdc603;fill-rule:evenodd" />

			<path
   id="path3020"
   d="M 38.3,50.2 C 15.4,27.6 15.4,11 36.9,-1.5 c 0,0 -26.9,13.7 11.7,45.5 3.8,3.1 2.7,6 0.3,7.4 -5.8,3.2 -8.5,0.8 -10.6,-1.2"
   clip-rule="evenodd"
   clip-path="url(#SVGID_2_)"
   inkscape:connector-curvature="0"
   style="fill:#eb661c;fill-rule:evenodd" />

			<path
   id="path3022"
   d="M 20.5,48.2 C 8.5,21.7 19.6,2.7 42,-3.5 c 0,0 -33.8,11.9 -9.2,47.9 3.1,4.5 -0.9,6.3 -4.3,7.3 -4.1,1.3 -7.1,-1.3 -8,-3.5"
   clip-rule="evenodd"
   clip-path="url(#SVGID_2_)"
   inkscape:connector-curvature="0"
   style="fill:#45a2da;fill-rule:evenodd" />

			<path
   id="path3024"
   d="M 5.3,38.5 C 5.5,11.8 26.2,-3.6 47.4,-4.3 c 0,0 -36.9,2.6 -30.6,40.9 0.5,3.3 -0.6,7 -5.5,7.1 -5.9,0.1 -6,-5.2 -6,-5.2"
   clip-rule="evenodd"
   clip-path="url(#SVGID_2_)"
   inkscape:connector-curvature="0"
   style="fill:#48ab33;fill-rule:evenodd" />

		</g>

		<g
   id="g3026">
			<path
   id="path3028"
   d="m 22,5.9 c 1.6,0 3.3,0.4 4.5,1.1 l 8.8,5.1 c 2.5,1.4 4.5,4.9 4.5,7.8 l 0,10.2 c 0,2.9 -2,6.4 -4.5,7.8 L 26.5,43 c -1.2,0.7 -2.9,1.1 -4.5,1.1 -1.6,0 -3.3,-0.4 -4.5,-1.1 L 8.7,37.9 C 6.2,36.5 4.2,33 4.2,30.1 V 19.9 c 0,-2.9 2,-6.4 4.5,-7.8 L 17.5,7 C 18.8,6.3 20.4,5.9 22,5.9 M 22,4.8 V 5.9 4.8 C 20.1,4.8 18.3,5.2 16.9,6 L 8.1,11.1 C 5.3,12.7 3,16.6 3,19.9 v 10.2 c 0,3.3 2.2,7.1 5.1,8.8 L 17,44 c 1.4,0.8 3.2,1.2 5.1,1.2 1.9,0 3.7,-0.4 5.1,-1.2 L 36,38.9 c 2.8,-1.6 5.1,-5.5 5.1,-8.8 l 0,-10.2 c 0,-3.3 -2.2,-7.1 -5.1,-8.8 L 27.1,6 C 25.7,5.2 23.9,4.8 22,4.8"
   inkscape:connector-curvature="0"
   style="fill:#767676" />

			<path
   id="path3030"
   d="m 22,12.5 c 1.1,0 2.1,0.2 3,0.7 l 5.8,3.3 c 1.6,0.9 3,3.2 3,5.1 v 6.7 c 0,1.9 -1.3,4.2 -3,5.1 L 25,36.8 c -0.8,0.5 -1.9,0.7 -3,0.7 -1.1,0 -2.1,-0.2 -3,-0.7 l -5.8,-3.3 c -1.6,-0.9 -3,-3.2 -3,-5.1 v -6.7 c 0,-1.9 1.3,-4.2 3,-5.1 L 19,13.3 c 0.9,-0.6 2,-0.8 3,-0.8 m 10.5,23.9 c 2.7,-1.5 4.6,-4.9 4.6,-8 v -6.7 c 0,-3.1 -1.9,-6.5 -4.6,-8 L 26.7,10.4 C 25.4,9.7 23.8,9.3 22.1,9.3 c -1.7,0 -3.3,0.4 -4.6,1.1 l -5.8,3.3 c -2.7,1.5 -4.6,4.9 -4.6,8 v 6.7 c 0,3.1 1.9,6.5 4.6,8 l 5.8,3.3 c 1.3,0.7 2.9,1.2 4.6,1.2 1.7,0 3.3,-0.4 4.6,-1.1"
   inkscape:connector-curvature="0"
   style="fill:#ffffff" />

		</g>

	</g>

</g>
    <flowRoot
       xml:space="preserve"
       id="flowRoot3112"
       style="font-size:40px;font-style:normal;font-weight:normal;line-height:125%;letter-spacing:0px;word-spacing:0px;fill:#000000;fill-opacity:1;stroke:none;font-family:Sans"><flowRegion
         id="flowRegion3114"><rect
           id="rect3116"
           width="31.964285"
           height="57.67857"
           x="72.14286"
           y="921.64789" /></flowRegion><flowPara
         id="flowPara3118">WWX</flowPara></flowRoot>    <text
       xml:space="preserve"
       style="font-size:40.31579971px;font-style:normal;font-variant:normal;font-weight:normal;font-stretch:normal;text-align:start;line-height:125%;letter-spacing:0px;word-spacing:0px;writing-mode:lr-tb;text-anchor:start;fill:#48ab33;fill-opacity:1;stroke:none;font-family:Open Sans;-inkscape-font-specification:Open Sans"
       x="-2.9598982"
       y="947.60724"
       id="text3120"
       sodipodi:linespacing="125%"
       transform="scale(0.99346825,1.0065747)"><tspan
         sodipodi:role="line"
         id="tspan3122"
         x="-2.9598982"
         y="947.60724">Brought to you by</tspan></text>
  </g>
</svg>
