<?xml version="1.0" encoding="utf-8"?>
<!-- Generator: Adobe Illustrator 17.1.0, SVG Export Plug-In . SVG Version: 6.00 Build 0)  -->
<!DOCTYPE svg PUBLIC "-//W3C//DTD SVG 1.1//EN" "http://www.w3.org/Graphics/SVG/1.1/DTD/svg11.dtd">
<svg version="1.1" id="Calque_1" xmlns="http://www.w3.org/2000/svg" xmlns:xlink="http://www.w3.org/1999/xlink" x="0px" y="0px"
	 viewBox="0 0 180 50" enable-background="new 0 0 180 50" xml:space="preserve">
<g>
	<g>
		<g>
			<path fill="#A0A1BD" d="M52.7,10.6c4.3,0,6.5,2.6,6.5,7.1v1.5H55v-1.8c0-2-0.8-2.8-2.2-2.8c-1.4,0-2.2,0.8-2.2,2.8
				c0,5.8,8.6,6.9,8.6,14.9c0,4.5-2.3,7.1-6.6,7.1c-4.3,0-6.6-2.6-6.6-7.1v-2.7h4.2v3c0,2,0.9,2.7,2.3,2.7c1.4,0,2.3-0.7,2.3-2.7
				c0-5.8-8.6-6.9-8.6-14.9C46.2,13.2,48.4,10.6,52.7,10.6"/>
			<rect x="61.8" y="10.9" fill="#A0A1BD" width="4.4" height="28.2"/>
			<polygon fill="#A0A1BD" points="69.4,10.9 73.9,10.9 73.9,35.1 81.2,35.1 81.2,39.1 69.4,39.1 			"/>
			<polygon fill="#A0A1BD" points="87.6,22.8 93.7,22.8 93.7,26.8 87.6,26.8 87.6,35.1 95.2,35.1 95.2,39.1 83.2,39.1 83.2,10.9 
				95.2,10.9 95.2,14.9 87.6,14.9 			"/>
			<polygon fill="#A0A1BD" points="112.8,10.9 108.1,24.6 113.1,39.1 108.4,39.1 104.8,27.9 101.1,39.1 97,39.1 101.9,24.6 
				97.3,10.9 101.9,10.9 105.2,21.3 108.6,10.9 			"/>
			<polygon fill="#6E6E7A" points="118,10.9 122.4,10.9 122.4,35.1 129.7,35.1 129.7,39.1 118,39.1 			"/>
			<path fill="#6E6E7A" d="M146,39.1h-4.5l-0.8-5.1h-5.4l-0.8,5.1h-4.1l4.5-28.2h6.5L146,39.1z M135.9,30.1h4.3l-2.1-14.2
				L135.9,30.1z"/>
			<path fill="#6E6E7A" d="M161.3,17.4v1c0,2.9-0.9,4.7-2.9,5.7c2.4,0.9,3.3,3.1,3.3,6v2.3c0,4.3-2.3,6.7-6.7,6.7h-7V10.9h6.7
				C159.4,10.9,161.3,13.1,161.3,17.4 M152.5,14.9v7.4h1.7c1.7,0,2.7-0.7,2.7-3v-1.6c0-2-0.7-2.9-2.3-2.9H152.5z M152.5,26.4v8.6
				h2.5c1.5,0,2.3-0.7,2.3-2.8v-2.5c0-2.6-0.8-3.4-2.9-3.4H152.5z"/>
			<path fill="#6E6E7A" d="M170.4,10.6c4.3,0,6.5,2.6,6.5,7.1v1.5h-4.2v-1.8c0-2-0.8-2.8-2.2-2.8c-1.4,0-2.2,0.8-2.2,2.8
				c0,5.8,8.6,6.9,8.6,14.9c0,4.5-2.2,7.1-6.6,7.1c-4.4,0-6.6-2.6-6.6-7.1v-2.7h4.2v3c0,2,0.9,2.7,2.3,2.7c1.4,0,2.3-0.7,2.3-2.7
				c0-5.8-8.7-6.9-8.7-14.9C163.9,13.2,166.1,10.6,170.4,10.6"/>
		</g>
		<g>
			<defs>
				<path id="SVGID_1_" d="M18.8,12.2l-6.3,3.6c-1.8,1-3.2,3.5-3.2,5.5v7.3c0,2,1.4,4.5,3.2,5.6l6.3,3.6c1.8,1,4.6,1,6.4,0l6.3-3.6
					c1.8-1,3.2-3.5,3.2-5.6l0-7.3c0-2-1.4-4.5-3.2-5.5l-6.3-3.6c-0.9-0.5-2-0.8-3.2-0.8C20.9,11.4,19.7,11.7,18.8,12.2"/>
			</defs>
			<clipPath id="SVGID_2_">
				<use xlink:href="#SVGID_1_"  overflow="visible"/>
			</clipPath>
			<path clip-path="url(#SVGID_2_)" fill-rule="evenodd" clip-rule="evenodd" fill="#FDC603" d="M53.9,45
				c-22.2-12.9-36.4-26.1-21-43.3c0,0-13.2,20.1,26.1,36.6C60.3,39.9,56,46.2,53.9,45"/>
			<path clip-path="url(#SVGID_2_)" fill-rule="evenodd" clip-rule="evenodd" fill="#EB661C" d="M38.3,50.2
				C15.4,27.6,15.4,11,36.9-1.5c0,0-26.9,13.7,11.7,45.5c3.8,3.1,2.7,6,0.3,7.4C43.1,54.6,40.4,52.2,38.3,50.2"/>
			<path clip-path="url(#SVGID_2_)" fill-rule="evenodd" clip-rule="evenodd" fill="#45A2DA" d="M20.5,48.2
				C8.5,21.7,19.6,2.7,42-3.5c0,0-33.8,11.9-9.2,47.9c3.1,4.5-0.9,6.3-4.3,7.3C24.4,53,21.4,50.4,20.5,48.2"/>
			<path clip-path="url(#SVGID_2_)" fill-rule="evenodd" clip-rule="evenodd" fill="#48AB33" d="M5.3,38.5
				C5.5,11.8,26.2-3.6,47.4-4.3c0,0-36.9,2.6-30.6,40.9c0.5,3.3-0.6,7-5.5,7.1C5.4,43.8,5.3,38.5,5.3,38.5"/>
		</g>
		<g>
			<path fill="#767676" d="M22,5.9c1.6,0,3.3,0.4,4.5,1.1l8.8,5.1c2.5,1.4,4.5,4.9,4.5,7.8l0,10.2c0,2.9-2,6.4-4.5,7.8L26.5,43
				c-1.2,0.7-2.9,1.1-4.5,1.1c-1.6,0-3.3-0.4-4.5-1.1l-8.8-5.1c-2.5-1.4-4.5-4.9-4.5-7.8V19.9c0-2.9,2-6.4,4.5-7.8L17.5,7
				C18.8,6.3,20.4,5.9,22,5.9 M22,4.8v1.1V4.8c-1.9,0-3.7,0.4-5.1,1.2l-8.8,5.1c-2.8,1.6-5.1,5.5-5.1,8.8v10.2
				c0,3.3,2.2,7.1,5.1,8.8L17,44c1.4,0.8,3.2,1.2,5.1,1.2c1.9,0,3.7-0.4,5.1-1.2l8.8-5.1c2.8-1.6,5.1-5.5,5.1-8.8l0-10.2
				c0-3.3-2.2-7.1-5.1-8.8L27.1,6C25.7,5.2,23.9,4.8,22,4.8"/>
			<path fill="#FFFFFF" d="M22,12.5c1.1,0,2.1,0.2,3,0.7l5.8,3.3c1.6,0.9,3,3.2,3,5.1v6.7c0,1.9-1.3,4.2-3,5.1L25,36.8
				c-0.8,0.5-1.9,0.7-3,0.7c-1.1,0-2.1-0.2-3-0.7l-5.8-3.3c-1.6-0.9-3-3.2-3-5.1v-6.7c0-1.9,1.3-4.2,3-5.1l5.8-3.3
				C19.9,12.7,21,12.5,22,12.5 M32.5,36.4c2.7-1.5,4.6-4.9,4.6-8v-6.7c0-3.1-1.9-6.5-4.6-8l-5.8-3.3c-1.3-0.7-2.9-1.1-4.6-1.1
				c-1.7,0-3.3,0.4-4.6,1.1l-5.8,3.3c-2.7,1.5-4.6,4.9-4.6,8v6.7c0,3.1,1.9,6.5,4.6,8l5.8,3.3c1.3,0.7,2.9,1.2,4.6,1.2
				c1.7,0,3.3-0.4,4.6-1.1"/>
		</g>
	</g>
</g>
</svg>
